<svg width="64" xmlns="http://www.w3.org/2000/svg" height="64" fill="none"><g class="frame-container-wrapper"><g class="frame-container-blur"><g class="frame-container-shadows"><g class="fills"><rect rx="0" ry="0" width="64" height="64" transform="matrix(1.000000, 0.000000, 0.000000, 1.000000, 0.000000, 0.000000)" class="frame-background"/></g><g class="frame-children"><path d="M0.000,64.000C0.000,32.000,0.000,32.000,0.000,32.000C4.967,32.000,7.303,28.023,11.500,26.000C17.532,23.091,27.295,22.855,30.500,17.000C32.993,12.446,32.000,5.554,32.000,0.000L64.000,-0.000C64.000,28.000,64.000,32.000,64.000,32.000C59.033,32.000,54.697,38.977,50.500,41.000C44.049,44.111,40.660,45.577,37.500,52.000C35.407,56.254,32.000,58.942,32.000,64.000" style="fill: rgb(102, 102, 102); fill-opacity: 1;" class="fills"/></g></g></g></g></svg>