<svg width="64" xmlns="http://www.w3.org/2000/svg" height="64" fill="none"><g class="frame-container-wrapper"><g class="frame-container-blur"><g class="frame-container-shadows"><g class="fills"><rect rx="0" ry="0" width="64" height="64" transform="matrix(1.000000, 0.000000, 0.000000, 1.000000, 0.000000, 0.000000)" class="frame-background"/></g><g class="frame-children"><path d="M32.000,0.000L0.000,0.000L0.000,32.000C0.000,32.000,0.000,32.000,0.000,32.000C0.000,32.000,0.000,32.000,0.000,32.000C0.000,32.000,0.000,32.000,0.000,32.000C0.000,32.000,0.000,32.000,0.000,32.000C3.863,32.000,7.570,28.257,11.000,27.000C18.848,24.124,25.406,24.569,29.000,18.000C31.016,14.315,32.000,4.959,32.000,0.000ZC32.000,0.000,32.000,0.000,32.000,0.000ZC32.000,0.000,32.000,0.000,32.000,0.000ZC32.000,0.000,32.000,0.000,32.000,0.000ZC32.000,0.000,32.000,0.000,32.000,0.000ZM13.000,24.000M13.000,24.000M29.000,18.000" style="fill: rgb(102, 102, 102); fill-opacity: 1;" class="fills"/></g></g></g></g></svg>