<svg width="64" xmlns="http://www.w3.org/2000/svg" height="64" fill="none"><g class="frame-container-wrapper"><g class="frame-container-blur"><g class="frame-container-shadows"><g class="fills"><rect rx="0" ry="0" width="64" height="64" transform="matrix(1.000000, 0.000000, 0.000000, 1.000000, 0.000000, 0.000000)" class="frame-background"/></g><g class="frame-children"><path d="M0.000,64.000L32.000,64.000C32.000,64.000,32.000,64.000,32.000,64.000C32.000,57.312,29.514,55.137,26.000,50.000C22.699,45.175,20.878,35.933,15.500,33.500C11.484,31.683,4.691,32.000,0.000,32.000C0.000,32.000,0.000,32.000,0.000,32.000L0.000,0.000L64.000,0.000L64.000,32.000L64.000,32.000L64.000,64.000M32.000,0.000C32.000,0.000,32.000,0.000,32.000,0.000ZC32.000,4.967,38.477,8.303,40.500,12.500C43.166,18.030,44.307,21.295,49.500,24.500C54.378,27.511,57.851,32.000,64.000,32.000C64.000,32.000,64.000,32.000,64.000,32.000C64.000,32.000,64.000,32.000,64.000,32.000C64.000,32.000,64.000,32.000,64.000,32.000C64.000,32.000,64.000,32.000,64.000,32.000C64.000,32.000,64.000,32.000,64.000,32.000C64.000,32.000,64.000,32.000,64.000,32.000C64.000,32.000,64.000,32.000,64.000,32.000C64.000,32.000,64.000,32.000,64.000,32.000C64.000,32.000,64.000,32.000,64.000,32.000C64.000,32.000,64.000,32.000,64.000,32.000C64.000,32.000,64.000,32.000,64.000,32.000C64.000,32.000,64.000,32.000,64.000,32.000L64.000,0.000L32.000,0.000Z" style="fill: rgb(102, 102, 102); fill-opacity: 1;" class="fills"/></g></g></g></g></svg>