<svg width="64" xmlns="http://www.w3.org/2000/svg" height="64" fill="none"><g class="frame-container-wrapper"><g class="frame-container-blur"><g class="frame-container-shadows"><g class="fills"><rect rx="0" ry="0" width="64" height="64" transform="matrix(1.000000, 0.000000, 0.000000, 1.000000, 0.000000, 0.000000)" class="frame-background"/></g><g class="frame-children"><path d="M64.000,64.000L0.000,64.000L0.000,23.000L10.000,23.000L10.000,31.000L54.000,31.000L54.000,23.000L64.000,23.000" style="fill: rgb(76, 76, 76); fill-opacity: 1;" class="fills"/><path d="M11.000,33.000L31.000,33.000L31.000,41.000L11.000,41.000L11.000,33.000ZM11.000,43.000L21.000,43.000L21.000,53.000L11.000,53.000L11.000,43.000ZM1.000,55.000L21.000,55.000L21.000,63.000L1.000,63.000L1.000,55.000ZM1.000,33.000L9.000,33.000L9.000,53.000L1.000,53.000L1.000,33.000ZM23.000,43.000L31.000,43.000L31.000,63.000L23.000,63.000L23.000,43.000ZM43.000,33.000L63.000,33.000L63.000,41.000L43.000,41.000L43.000,33.000ZM43.000,43.000L53.000,43.000L53.000,53.000L43.000,53.000L43.000,43.000ZM33.000,55.000L53.000,55.000L53.000,63.000L33.000,63.000L33.000,55.000ZM33.000,33.000L41.000,33.000L41.000,53.000L33.000,53.000L33.000,33.000ZM55.000,43.000L63.000,43.000L63.000,63.000L55.000,63.000L55.000,43.000ZM2.000,25.000L8.000,25.000L8.000,31.000L2.000,31.000L2.000,25.000ZM56.000,25.000L62.000,25.000L62.000,31.000L56.000,31.000L56.000,25.000Z" style="fill: rgb(102, 102, 102); fill-opacity: 1;" class="fills"/></g></g></g></g></svg>