<svg width="64" xmlns="http://www.w3.org/2000/svg" height="64" fill="none"><g class="frame-container-wrapper"><g class="frame-container-blur"><g class="frame-container-shadows"><g class="fills"><rect rx="0" ry="0" width="64" height="64" transform="matrix(1.000000, 0.000000, 0.000000, 1.000000, 0.000000, 0.000000)" class="frame-background"/></g><g class="frame-children"><path d="M54.000,33.000L31.000,33.000L31.000,10.000L23.000,10.000L23.000,0.000L64.000,0.000L64.000,41.000L54.000,41.000L54.000,33.000ZL64.000,33.000" style="fill: rgb(76, 76, 76); fill-opacity: 1;" class="fills"/><path d="M56.000,33.000L62.000,33.000L62.000,39.000L56.000,39.000L56.000,33.000ZM55.000,11.000L63.000,11.000L63.000,31.000L55.000,31.000L55.000,11.000ZM43.000,1.000L63.000,1.000L63.000,9.000L43.000,9.000L43.000,1.000ZM43.000,11.000L53.000,11.000L53.000,21.000L43.000,21.000L43.000,11.000ZM33.000,23.000L53.000,23.000L53.000,31.000L33.000,31.000L33.000,23.000ZM33.000,1.000L41.000,1.000L41.000,21.000L33.000,21.000L33.000,1.000ZM25.000,2.000L31.000,2.000L31.000,8.000L25.000,8.000L25.000,2.000Z" style="fill: rgb(102, 102, 102); fill-opacity: 1;" class="fills"/></g></g></g></g></svg>