<svg width="64" xmlns="http://www.w3.org/2000/svg" height="64" fill="none"><g class="frame-container-wrapper"><g class="frame-container-blur"><g class="frame-container-shadows"><g class="fills"><rect rx="0" ry="0" width="64" height="64" transform="matrix(1.000000, 0.000000, 0.000000, 1.000000, 0.000000, 0.000000)" class="frame-background"/></g><g class="frame-children"><path d="M0.000,64.000L0.000,0.000L41.000,0.000L41.000,10.000L33.000,10.000L33.000,54.000L41.000,54.000L41.000,64.000" style="fill: rgb(76, 76, 76); fill-opacity: 1;" class="fills"/><path d="M11.000,33.000L31.000,33.000L31.000,41.000L11.000,41.000L11.000,33.000ZM11.000,43.000L21.000,43.000L21.000,53.000L11.000,53.000L11.000,43.000ZM1.000,55.000L21.000,55.000L21.000,63.000L1.000,63.000L1.000,55.000ZM1.000,33.000L9.000,33.000L9.000,53.000L1.000,53.000L1.000,33.000ZM23.000,43.000L31.000,43.000L31.000,63.000L23.000,63.000L23.000,43.000ZM11.000,1.000L31.000,1.000L31.000,9.000L11.000,9.000L11.000,1.000ZM11.000,11.000L21.000,11.000L21.000,21.000L11.000,21.000L11.000,11.000ZM1.000,23.000L21.000,23.000L21.000,31.000L1.000,31.000L1.000,23.000ZM1.000,1.000L9.000,1.000L9.000,21.000L1.000,21.000L1.000,1.000ZM23.000,11.000L31.000,11.000L31.000,31.000L23.000,31.000L23.000,11.000ZM33.000,2.000L39.000,2.000L39.000,8.000L33.000,8.000L33.000,2.000ZM33.000,56.000L39.000,56.000L39.000,62.000L33.000,62.000L33.000,56.000Z" style="fill: rgb(102, 102, 102); fill-opacity: 1;" class="fills"/></g></g></g></g></svg>