<svg width="64" xmlns="http://www.w3.org/2000/svg" height="64" fill="none"><g class="frame-container-wrapper"><g class="frame-container-blur"><g class="frame-container-shadows"><g class="fills"><rect rx="0" ry="0" width="64" height="64" transform="matrix(1.000000, 0.000000, 0.000000, 1.000000, 0.000000, 0.000000)" class="frame-background"/></g><g class="frame-children"><path d="M0.000,64.000L32.000,64.000C32.000,64.000,32.000,64.000,32.000,64.000C32.000,46.339,17.661,32.000,0.000,32.000C0.000,32.000,0.000,32.000,0.000,32.000L0.000,0.000L64.000,0.000L64.000,32.000L64.000,32.000L64.000,64.000M32.000,0.000C32.000,0.000,32.000,0.000,32.000,0.000ZC32.000,17.661,46.339,32.000,64.000,32.000C64.000,32.000,64.000,32.000,64.000,32.000C64.000,32.000,64.000,32.000,64.000,32.000C64.000,32.000,64.000,32.000,64.000,32.000L64.000,0.000L32.000,0.000Z" style="fill: rgb(102, 102, 102); fill-opacity: 1;" class="fills"/><path d="M64.000,16.000L64.000,38.000L26.000,38.000L26.000,0.000L48.000,0.000C48.000,0.000,48.000,0.000,48.000,0.000C48.000,8.831,55.169,16.000,64.000,16.000ZC64.000,16.000,64.000,16.000,64.000,16.000Z" style="fill: rgb(102, 102, 102); fill-opacity: 0.5;" class="fills"/><path d="M0.000,48.000L0.000,26.000L38.000,26.000L38.000,64.000L16.000,64.000C16.000,64.000,16.000,64.000,16.000,64.000C16.000,55.169,8.831,48.000,0.000,48.000ZC0.000,48.000,0.000,48.000,0.000,48.000Z" style="fill: rgb(102, 102, 102); fill-opacity: 0.5;" class="fills"/></g></g></g></g></svg>