<svg width="64" xmlns="http://www.w3.org/2000/svg" height="64" fill="none"><g class="frame-container-wrapper"><g class="frame-container-blur"><g class="frame-container-shadows"><g class="fills"><rect rx="0" ry="0" width="64" height="64" transform="matrix(1.000000, 0.000000, 0.000000, 1.000000, 0.000000, 0.000000)" class="frame-background"/></g><g class="frame-children"><path d="M32.000,64.000L0.000,64.000L0.000,0.000L32.000,0.000L32.000,32.000M32.000,32.000L64.000,32.000L64.000,64.000L32.000,64.000L32.000,32.000Z" style="fill: rgb(76, 76, 76); fill-opacity: 1;" class="fills"/><path d="M1.000,3.000C1.000,1.896,1.896,1.000,3.000,1.000L29.000,1.000C30.104,1.000,31.000,1.896,31.000,3.000L31.000,29.000C31.000,30.104,30.104,31.000,29.000,31.000L3.000,31.000C1.896,31.000,1.000,30.104,1.000,29.000L1.000,3.000ZM1.000,35.000C1.000,33.896,1.896,33.000,3.000,33.000L29.000,33.000C30.104,33.000,31.000,33.896,31.000,35.000L31.000,61.000C31.000,62.104,30.104,63.000,29.000,63.000L3.000,63.000C1.896,63.000,1.000,62.104,1.000,61.000L1.000,35.000ZM33.000,35.000C33.000,33.896,33.896,33.000,35.000,33.000L61.000,33.000C62.104,33.000,63.000,33.896,63.000,35.000L63.000,61.000C63.000,62.104,62.104,63.000,61.000,63.000L35.000,63.000C33.896,63.000,33.000,62.104,33.000,61.000L33.000,35.000Z" style="fill: rgb(102, 102, 102); fill-opacity: 1;" class="fills"/></g></g></g></g></svg>