<svg xmlns="http://www.w3.org/2000/svg" width="64" height="64"><g class="frame-children"><path d="M40.632,24.368C45.120,28.856,45.120,36.144,40.632,40.632C36.144,45.120,28.856,45.120,24.368,40.632C19.880,36.144,19.880,28.856,24.368,24.368C28.856,19.880,36.144,19.880,40.632,24.368ZM38.864,26.136C35.352,22.624,29.648,22.624,26.136,26.136C22.624,29.648,22.624,35.352,26.136,38.864C29.648,42.376,35.352,42.376,38.864,38.864C42.376,35.352,42.376,29.648,38.864,26.136Z" class="circle"/><path d="M32.500,34.621L23.308,43.814L21.186,41.692L30.379,32.500L21.186,23.308L23.308,21.186L32.500,30.379L41.692,21.186L43.814,23.308L34.621,32.500L43.814,41.692L41.692,43.814L32.500,34.621Z" class="icon"/></g></svg>