<svg xmlns="http://www.w3.org/2000/svg" width="64" height="64"><g class="frame-children"><path d="M32.500,21.000C38.847,21.000,44.000,26.153,44.000,32.500C44.000,38.847,38.847,44.000,32.500,44.000C26.153,44.000,21.000,38.847,21.000,32.500C21.000,26.153,26.153,21.000,32.500,21.000ZM32.500,23.500C27.533,23.500,23.500,27.533,23.500,32.500C23.500,37.467,27.533,41.500,32.500,41.500C37.467,41.500,41.500,37.467,41.500,32.500C41.500,27.533,37.467,23.500,32.500,23.500Z" class="circle"/><path d="M31.000,12.000L34.000,12.000L34.000,26.000L31.000,26.000L31.000,12.000ZM31.000,39.000L34.000,39.000L34.000,53.000L31.000,53.000L31.000,39.000ZM53.000,31.000L53.000,34.000L39.000,34.000L39.000,31.000L53.000,31.000ZM26.000,31.000L26.000,34.000L12.000,34.000L12.000,31.000L26.000,31.000Z" class="icon"/></g></svg>