<svg width="64" xmlns="http://www.w3.org/2000/svg" height="64" fill="none"><g class="frame-container-wrapper"><g class="frame-container-blur"><g class="frame-container-shadows"><g class="fills"><rect rx="0" ry="0" width="64" height="64" transform="matrix(1.000000, 0.000000, 0.000000, 1.000000, 0.000000, 0.000000)" class="frame-background"/></g><g class="frame-children"><path d="M44.000,46.000C44.000,44.896,44.896,44.000,46.000,44.000L64.000,44.000L64.000,64.000L44.000,64.000L44.000,46.000Z" style="fill: rgb(51, 51, 51); fill-opacity: 1;" class="fills"/><path d="M48.000,50.000C48.000,48.896,48.896,48.000,50.000,48.000L60.000,48.000C61.104,48.000,62.000,48.896,62.000,50.000L62.000,60.000C62.000,61.104,61.104,62.000,60.000,62.000L50.000,62.000C48.896,62.000,48.000,61.104,48.000,60.000L48.000,50.000Z" style="fill: rgb(102, 102, 102); fill-opacity: 1;" class="fills"/></g></g></g></g></svg>