<svg width="64" xmlns="http://www.w3.org/2000/svg" height="64" fill="none"><g class="frame-container-wrapper"><g class="frame-container-blur"><g class="frame-container-shadows"><g class="fills"><rect rx="0" ry="0" width="64" height="64" transform="matrix(1.000000, 0.000000, 0.000000, 1.000000, 0.000000, 0.000000)" class="frame-background"/></g><g class="frame-children"><path d="M0.000,44.000L18.000,44.000C19.104,44.000,20.000,44.896,20.000,46.000L20.000,64.000L0.000,64.000L0.000,44.000Z" style="fill: rgb(51, 51, 51); fill-opacity: 1;" class="fills"/><path d="M3.000,49.000C3.000,47.896,3.896,47.000,5.000,47.000L15.000,47.000C16.104,47.000,17.000,47.896,17.000,49.000L17.000,59.000C17.000,60.104,16.104,61.000,15.000,61.000L5.000,61.000C3.896,61.000,3.000,60.104,3.000,59.000L3.000,49.000Z" style="fill: rgb(102, 102, 102); fill-opacity: 1;" class="fills"/></g></g></g></g></svg>