<svg width="64" xmlns="http://www.w3.org/2000/svg" height="64" fill="none"><g class="frame-container-wrapper"><g class="frame-container-blur"><g class="frame-container-shadows"><g class="fills"><rect rx="0" ry="0" width="64" height="64" transform="matrix(1.000000, 0.000000, 0.000000, 1.000000, 0.000000, 0.000000)" class="frame-background"/></g><g class="frame-children"><path d="M44,0 h20 a0,0 0 0 1 0,0 v20 a0,0 0 0 1 0,0 h-18 a2,2 0 0 1 -2,-2 v-18 a0,0 0 0 1 0,0 z" transform="matrix(1.000000, 0.000000, 0.000000, 1.000000, 0.000000, 0.000000)" style="fill: rgb(51, 51, 51); fill-opacity: 1;" class="fills"/><path d="M48.000,4.000C48.000,2.896,48.896,2.000,50.000,2.000L60.000,2.000C61.104,2.000,62.000,2.896,62.000,4.000L62.000,14.000C62.000,15.104,61.104,16.000,60.000,16.000L50.000,16.000C48.896,16.000,48.000,15.104,48.000,14.000L48.000,4.000Z" style="fill: rgb(102, 102, 102); fill-opacity: 1;" class="fills"/></g></g></g></g></svg>