<svg width="64" xmlns="http://www.w3.org/2000/svg" height="64" fill="none"><g class="frame-container-wrapper"><g class="frame-container-blur"><g class="frame-container-shadows"><g class="fills"><rect rx="0" ry="0" width="64" height="64" transform="matrix(1.000000, 0.000000, 0.000000, 1.000000, 0.000000, 0.000000)" class="frame-background"/></g><g class="frame-children"><path d="M0.000,30.000L30.000,30.000L30.000,0.000L64.000,0.000L64.000,64.000L0.000,64.000L0.000,30.000Z" style="fill: rgb(51, 51, 51); fill-opacity: 1;" class="fills"/><path d="M34.000,4.000C34.000,2.896,34.896,2.000,36.000,2.000L60.000,2.000C61.104,2.000,62.000,2.896,62.000,4.000L62.000,28.000C62.000,29.104,61.104,30.000,60.000,30.000L36.000,30.000C34.896,30.000,34.000,29.104,34.000,28.000L34.000,4.000ZM2.000,36.000C2.000,34.896,2.896,34.000,4.000,34.000L60.000,34.000C61.104,34.000,62.000,34.896,62.000,36.000L62.000,60.000C62.000,61.104,61.104,62.000,60.000,62.000L4.000,62.000C2.896,62.000,2.000,61.104,2.000,60.000L2.000,36.000Z" style="fill: rgb(102, 102, 102); fill-opacity: 1;" class="fills"/></g></g></g></g></svg>