<svg width="64" xmlns="http://www.w3.org/2000/svg" height="64" fill="none"><g class="frame-container-wrapper"><g class="frame-container-blur"><g class="frame-container-shadows"><g class="fills"><rect rx="0" ry="0" width="64" height="64" transform="matrix(1.000000, 0.000000, 0.000000, 1.000000, 0.000000, 0.000000)" class="frame-background"/></g><g class="frame-children"><path d="M0.000,0.000L20.000,0.000L20.000,18.000C20.000,19.104,19.104,20.000,18.000,20.000L0.000,20.000L0.000,0.000Z" style="fill: rgb(51, 51, 51); fill-opacity: 1;" class="fills"/><path d="M2.000,4.000C2.000,2.896,2.896,2.000,4.000,2.000L14.000,2.000C15.104,2.000,16.000,2.896,16.000,4.000L16.000,14.000C16.000,15.104,15.104,16.000,14.000,16.000L4.000,16.000C2.896,16.000,2.000,15.104,2.000,14.000L2.000,4.000Z" style="fill: rgb(102, 102, 102); fill-opacity: 1;" class="fills"/></g></g></g></g></svg>