<svg width="64" xmlns="http://www.w3.org/2000/svg" height="64" fill="none"><g class="frame-container-wrapper"><g class="frame-container-blur"><g class="frame-container-shadows"><g class="fills"><rect rx="0" ry="0" width="64" height="64" transform="matrix(1.000000, 0.000000, 0.000000, 1.000000, 0.000000, 0.000000)" class="frame-background"/></g><g class="frame-children"><path d="M30.000,56.000L10.000,56.000C8.896,56.000,8.000,55.104,8.000,54.000L8.000,34.000L0.000,34.000L0.000,0.000L32.000,0.000C33.104,0.000,34.000,0.896,34.000,2.000L34.000,8.000L54.000,8.000C55.104,8.000,56.000,8.896,56.000,10.000L56.000,30.000L64.000,30.000L64.000,64.000L30.000,64.000L30.000,56.000Z" style="fill: rgb(51, 51, 51); fill-opacity: 1;" class="fills"/><path d="M2.000,4.000C2.000,2.896,2.896,2.000,4.000,2.000L28.000,2.000C29.104,2.000,30.000,2.896,30.000,4.000L30.000,28.000C30.000,29.104,29.104,30.000,28.000,30.000L4.000,30.000C2.896,30.000,2.000,29.104,2.000,28.000L2.000,4.000ZM34.000,36.000C34.000,34.896,34.896,34.000,36.000,34.000L60.000,34.000C61.104,34.000,62.000,34.896,62.000,36.000L62.000,60.000C62.000,61.104,61.104,62.000,60.000,62.000L36.000,62.000C34.896,62.000,34.000,61.104,34.000,60.000L34.000,36.000ZM34.000,14.000C34.000,12.896,34.896,12.000,36.000,12.000L50.000,12.000C51.104,12.000,52.000,12.896,52.000,14.000L52.000,28.000C52.000,29.104,51.104,30.000,50.000,30.000L36.000,30.000C34.896,30.000,34.000,29.104,34.000,28.000L34.000,14.000ZM12.000,36.000C12.000,34.896,12.896,34.000,14.000,34.000L28.000,34.000C29.104,34.000,30.000,34.896,30.000,36.000L30.000,50.000C30.000,51.104,29.104,52.000,28.000,52.000L14.000,52.000C12.896,52.000,12.000,51.104,12.000,50.000L12.000,36.000Z" style="fill: rgb(102, 102, 102); fill-opacity: 1;" class="fills"/></g></g></g></g></svg>