<svg width="512" xmlns="http://www.w3.org/2000/svg" height="512" fill="none"><defs><clipPath id="a" class="frame-clip frame-clip-def"><rect rx="0" ry="0" width="512" height="512" transform="matrix(1.000000, 0.000000, 0.000000, 1.000000, 0.000000, 0.000000)"/></clipPath></defs><g class="frame-container-wrapper"><g class="frame-container-blur"><g clip-path="url(#a)" class="frame-container-shadows"><g class="fills"><rect rx="0" ry="0" width="512" height="512" transform="matrix(1.000000, 0.000000, 0.000000, 1.000000, 0.000000, 0.000000)" class="frame-background"/></g><g class="frame-children"><rect rx="26" ry="26" x="41" y="40" transform="matrix(1.000000, 0.000000, 0.000000, 1.000000, 0.000000, 0.000000)" width="216" height="216" style="fill: rgb(52, 159, 0); fill-opacity: 1;" class="fills"/><defs><linearGradient id="c" x1=".5" y1="0" x2=".5" y2="1"><stop offset="0" stop-color="#333"/><stop offset="1" stop-color="#333" stop-opacity=".8"/></linearGradient><pattern patternUnits="userSpaceOnUse" x="75" y="74" width="149" height="149" id="d"><rect width="149" height="149" style="fill: url(&quot;#c&quot;);"/></pattern></defs><rect rx="20" ry="20" x="75" y="74" transform="matrix(1.000000, 0.000000, 0.000000, 1.000000, 0.000000, 0.000000)" width="149" height="149" fill="url(#d)" class="fills"/><rect rx="26" ry="26" x="296" y="1" transform="matrix(1.000000, 0.000000, 0.000000, 1.000000, 0.000000, 0.000000)" width="216" height="216" style="fill: rgb(64, 193, 0); fill-opacity: 1;" class="fills"/><defs><linearGradient id="e" x1=".5" y1="0" x2=".5" y2="1"><stop offset="0" stop-color="#333"/><stop offset="1" stop-color="#333" stop-opacity=".8"/></linearGradient><pattern patternUnits="userSpaceOnUse" x="330" y="35" width="149" height="149" id="f"><rect width="149" height="149" style="fill: url(&quot;#e&quot;);"/></pattern></defs><rect rx="20" ry="20" x="330" y="35" transform="matrix(1.000000, 0.000000, 0.000000, 1.000000, 0.000000, 0.000000)" width="149" height="149" fill="url(#f)" class="fills"/><rect rx="26" ry="26" x="1" y="296" transform="matrix(1.000000, 0.000000, 0.000000, 1.000000, 0.000000, 0.000000)" width="216" height="216" style="fill: rgb(64, 193, 0); fill-opacity: 1;" class="fills"/><defs><linearGradient id="g" x1=".5" y1="0" x2=".5" y2="1"><stop offset="0" stop-color="#333"/><stop offset="1" stop-color="#333" stop-opacity=".8"/></linearGradient><pattern patternUnits="userSpaceOnUse" x="35" y="330" width="149" height="149" id="h"><rect width="149" height="149" style="fill: url(&quot;#g&quot;);"/></pattern></defs><rect rx="20" ry="20" x="35" y="330" transform="matrix(1.000000, 0.000000, 0.000000, 1.000000, 0.000000, 0.000000)" width="149" height="149" fill="url(#h)" class="fills"/><rect rx="26" ry="26" x="256" y="256" transform="matrix(1.000000, 0.000000, 0.000000, 1.000000, 0.000000, 0.000000)" width="216" height="216" style="fill: rgb(52, 159, 0); fill-opacity: 1;" class="fills"/><defs><linearGradient id="i" x1=".5" y1="0" x2=".5" y2="1"><stop offset="0" stop-color="#333"/><stop offset="1" stop-color="#333" stop-opacity=".8"/></linearGradient><pattern patternUnits="userSpaceOnUse" x="290" y="290" width="149" height="149" id="j"><rect width="149" height="149" style="fill: url(&quot;#i&quot;);"/></pattern></defs><rect rx="20" ry="20" x="290" y="290" transform="matrix(1.000000, 0.000000, 0.000000, 1.000000, 0.000000, 0.000000)" width="149" height="149" fill="url(#j)" class="fills"/><defs><filter id="k" x="-.176" y="-.176" width="1.352" height="1.352" filterUnits="objectBoundingBox" color-interpolation-filters="sRGB"><feFlood flood-opacity="0" result="BackgroundImageFix"/><feColorMatrix in="SourceAlpha" values="0 0 0 0 0 0 0 0 0 0 0 0 0 0 0 0 0 0 127 0"/><feOffset/><feGaussianBlur stdDeviation="5"/><feColorMatrix values="0 0 0 0 0 0 0 0 0 0 0 0 0 0 0 0 0 0 1 0"/><feBlend in2="BackgroundImageFix" result="filter_31320986-6ae0-80f3-8006-012f81ff5833"/><feBlend in="SourceGraphic" in2="filter_31320986-6ae0-80f3-8006-012f81ff5833" result="shape"/></filter></defs><rect width="256" height="256" x="128" transform="matrix(1.000000, 0.000000, 0.000000, 1.000000, 0.000000, 0.000000)" style="fill: rgb(59, 255, 10); fill-opacity: 1;" ry="30" rx="30" filter="url(#k)" y="128" class="fills"/><defs><filter id="n" x="0" y="0" width="1" height="1" filterUnits="objectBoundingBox" color-interpolation-filters="sRGB"><feFlood flood-opacity="0" result="BackgroundImageFix"/><feBlend in="SourceGraphic" in2="BackgroundImageFix" result="shape"/><feColorMatrix in="SourceAlpha" values="0 0 0 0 0 0 0 0 0 0 0 0 0 0 0 0 0 0 127 0" result="hardAlpha"/><feMorphology radius="4" in="SourceAlpha" result="filter_31320986-6ae0-80f3-8006-01303bdf3fd2"/><feOffset/><feGaussianBlur stdDeviation="4"/><feComposite in2="hardAlpha" operator="arithmetic" k2="-1" k3="1"/><feColorMatrix values="0 0 0 0 0 0 0 0 0 0 0 0 0 0 0 0 0 0 0.2 0"/><feBlend in2="shape" result="filter_31320986-6ae0-80f3-8006-01303bdf3fd2"/></filter><linearGradient id="l" x1=".5" y1="0" x2=".5" y2="1"><stop offset="0" stop-color="#333"/><stop offset="1" stop-color="#333" stop-opacity=".8"/></linearGradient><pattern patternUnits="userSpaceOnUse" x="168" y="168" width="176.466" height="176.466" id="m"><rect width="176.466" height="176.466" style="fill: url(&quot;#l&quot;);"/></pattern></defs><rect width="176.466" height="176.466" x="168" transform="matrix(1.000000, 0.000000, 0.000000, 1.000000, 0.000000, 0.000000)" ry="20" fill="url(#m)" rx="20" filter="url(#n)" y="168" class="fills"/></g></g><g class="strokes"><g class="stroke-shape"><rect width="512" height="512" class="frame-background" transform="matrix(1.000000, 0.000000, 0.000000, 1.000000, 0.000000, 0.000000)" style="fill: none;" ry="0" rx="0"/></g></g></g></g></svg>