<svg width="512" xmlns="http://www.w3.org/2000/svg" height="512" fill="none"><defs><clipPath id="a" class="frame-clip frame-clip-def"><rect rx="0" ry="0" width="512" height="512" transform="matrix(1.000000, 0.000000, 0.000000, 1.000000, 0.000000, 0.000000)"/></clipPath></defs><g class="frame-container-wrapper"><g class="frame-container-blur"><g clip-path="url(#a)" class="frame-container-shadows"><g class="fills"><rect rx="0" ry="0" width="512" height="512" transform="matrix(1.000000, 0.000000, 0.000000, 1.000000, 0.000000, 0.000000)" class="frame-background"/></g><g class="frame-children"><path d="M41.000,66.000C41.000,51.650,52.650,40.000,67.000,40.000L231.000,40.000C245.350,40.000,257.000,51.650,257.000,66.000L257.000,230.000C257.000,244.350,245.350,256.000,231.000,256.000L67.000,256.000C52.650,256.000,41.000,244.350,41.000,230.000L41.000,66.000ZM75.000,94.000L75.000,203.000C75.000,214.038,83.962,223.000,95.000,223.000L204.000,223.000C215.038,223.000,224.000,214.038,224.000,203.000L224.000,94.000C224.000,82.962,215.038,74.000,204.000,74.000L95.000,74.000C83.962,74.000,75.000,82.962,75.000,94.000Z" style="fill: rgb(17, 180, 0); fill-opacity: 1;" class="fills"/><path d="M296.000,27.000C296.000,12.650,307.650,1.000,322.000,1.000L486.000,1.000C500.350,1.000,512.000,12.650,512.000,27.000L512.000,191.000C512.000,205.350,500.350,217.000,486.000,217.000L322.000,217.000C307.650,217.000,296.000,205.350,296.000,191.000L296.000,27.000ZM330.000,55.000L330.000,164.000C330.000,175.038,338.962,184.000,350.000,184.000L459.000,184.000C470.038,184.000,479.000,175.038,479.000,164.000L479.000,55.000C479.000,43.962,470.038,35.000,459.000,35.000L350.000,35.000C338.962,35.000,330.000,43.962,330.000,55.000Z" style="fill: rgb(18, 208, 0); fill-opacity: 1;" class="fills"/><defs><filter id="d" x="0" y="0" width="1" height="1" filterUnits="objectBoundingBox" color-interpolation-filters="sRGB"><feFlood flood-opacity="0" result="BackgroundImageFix"/><feBlend in="SourceGraphic" in2="BackgroundImageFix" result="shape"/><feColorMatrix in="SourceAlpha" values="0 0 0 0 0 0 0 0 0 0 0 0 0 0 0 0 0 0 127 0" result="hardAlpha"/><feMorphology radius="5" in="SourceAlpha" result="filter_31320986-6ae0-80f3-8006-01303bdf3fd2"/><feOffset/><feGaussianBlur stdDeviation="5"/><feComposite in2="hardAlpha" operator="arithmetic" k2="-1" k3="1"/><feColorMatrix values="0 0 0 0 0.09803921568627451 0 0 0 0 1 0 0 0 0 0 0 0 0 0.2 0"/><feBlend in2="shape" result="filter_31320986-6ae0-80f3-8006-01303bdf3fd2"/></filter><linearGradient id="c" x1=".5" y1="0" x2=".5" y2="1"><stop offset="0" stop-color="#333"/><stop offset="1" stop-color="#185f12"/></linearGradient><pattern patternUnits="userSpaceOnUse" x="330" y="35" width="149" height="149" patternTransform="matrix(1.000000, 0.000000, 0.000000, 1.000000, 0.000000, 0.000000)" id="e"><rect width="149" height="149" style="fill: url(&quot;#c&quot;);"/></pattern></defs><path d="M330.000,51.887C330.000,42.567,337.567,35.000,346.887,35.000L462.113,35.000C471.433,35.000,479.000,42.567,479.000,51.887L479.000,167.113C479.000,176.433,471.433,184.000,462.113,184.000L346.887,184.000C337.567,184.000,330.000,176.433,330.000,167.113L330.000,51.887Z" filter="url(#d)" fill="url(#e)" class="fills"/><path d="M0.000,322.000C0.000,307.650,11.650,296.000,26.000,296.000L190.000,296.000C204.350,296.000,216.000,307.650,216.000,322.000L216.000,486.000C216.000,500.350,204.350,512.000,190.000,512.000L26.000,512.000C11.650,512.000,0.000,500.350,0.000,486.000L0.000,322.000ZM34.000,350.000L34.000,459.000C34.000,470.038,42.962,479.000,54.000,479.000L163.000,479.000C174.038,479.000,183.000,470.038,183.000,459.000L183.000,350.000C183.000,338.962,174.038,330.000,163.000,330.000L54.000,330.000C42.962,330.000,34.000,338.962,34.000,350.000Z" style="fill: rgb(18, 208, 0); fill-opacity: 1;" class="fills"/><defs><filter id="g" x="0" y="0" width="1" height="1" filterUnits="objectBoundingBox" color-interpolation-filters="sRGB"><feFlood flood-opacity="0" result="BackgroundImageFix"/><feBlend in="SourceGraphic" in2="BackgroundImageFix" result="shape"/><feColorMatrix in="SourceAlpha" values="0 0 0 0 0 0 0 0 0 0 0 0 0 0 0 0 0 0 127 0" result="hardAlpha"/><feMorphology radius="5" in="SourceAlpha" result="filter_31320986-6ae0-80f3-8006-01303bdf3fd2"/><feOffset/><feGaussianBlur stdDeviation="5"/><feComposite in2="hardAlpha" operator="arithmetic" k2="-1" k3="1"/><feColorMatrix values="0 0 0 0 0.09803921568627451 0 0 0 0 1 0 0 0 0 0 0 0 0 0.2 0"/><feBlend in2="shape" result="filter_31320986-6ae0-80f3-8006-01303bdf3fd2"/></filter><linearGradient id="f" x1=".5" y1="0" x2=".5" y2="1"><stop offset="0" stop-color="#333"/><stop offset="1" stop-color="#13490d"/></linearGradient><pattern patternUnits="userSpaceOnUse" x="75" y="74" width="149" height="149" patternTransform="matrix(1.000000, 0.000000, 0.000000, 1.000000, 0.000000, 0.000000)" id="h"><rect width="149" height="149" style="fill: url(&quot;#f&quot;);"/></pattern></defs><path d="M75.000,90.887C75.000,81.567,82.567,74.000,91.887,74.000L207.113,74.000C216.433,74.000,224.000,81.567,224.000,90.887L224.000,206.113C224.000,215.433,216.433,223.000,207.113,223.000L91.887,223.000C82.567,223.000,75.000,215.433,75.000,206.113L75.000,90.887Z" filter="url(#g)" fill="url(#h)" class="fills"/><defs><filter id="j" x="0" y="0" width="1" height="1" filterUnits="objectBoundingBox" color-interpolation-filters="sRGB"><feFlood flood-opacity="0" result="BackgroundImageFix"/><feBlend in="SourceGraphic" in2="BackgroundImageFix" result="shape"/><feColorMatrix in="SourceAlpha" values="0 0 0 0 0 0 0 0 0 0 0 0 0 0 0 0 0 0 127 0" result="hardAlpha"/><feMorphology radius="5" in="SourceAlpha" result="filter_31320986-6ae0-80f3-8006-01303bdf3fd2"/><feOffset/><feGaussianBlur stdDeviation="5"/><feComposite in2="hardAlpha" operator="arithmetic" k2="-1" k3="1"/><feColorMatrix values="0 0 0 0 0.09803921568627451 0 0 0 0 1 0 0 0 0 0 0 0 0 0.2 0"/><feBlend in2="shape" result="filter_31320986-6ae0-80f3-8006-01303bdf3fd2"/></filter><linearGradient id="i" x1=".5" y1="0" x2=".5" y2="1"><stop offset="0" stop-color="#333"/><stop offset="1" stop-color="#175d11"/></linearGradient><pattern patternUnits="userSpaceOnUse" x="34" y="330" width="149" height="149" patternTransform="matrix(1.000000, 0.000000, 0.000000, 1.000000, 0.000000, 0.000000)" id="k"><rect width="149" height="149" style="fill: url(&quot;#i&quot;);"/></pattern></defs><path d="M34.000,346.887C34.000,337.567,41.567,330.000,50.887,330.000L166.113,330.000C175.433,330.000,183.000,337.567,183.000,346.887L183.000,462.113C183.000,471.433,175.433,479.000,166.113,479.000L50.887,479.000C41.567,479.000,34.000,471.433,34.000,462.113L34.000,346.887Z" filter="url(#j)" fill="url(#k)" class="fills"/><path d="M256.000,282.000C256.000,267.650,267.650,256.000,282.000,256.000L446.000,256.000C460.350,256.000,472.000,267.650,472.000,282.000L472.000,446.000C472.000,460.350,460.350,472.000,446.000,472.000L282.000,472.000C267.650,472.000,256.000,460.350,256.000,446.000L256.000,282.000ZM290.000,310.000L290.000,419.000C290.000,430.038,298.962,439.000,310.000,439.000L419.000,439.000C430.038,439.000,439.000,430.038,439.000,419.000L439.000,310.000C439.000,298.962,430.038,290.000,419.000,290.000L310.000,290.000C298.962,290.000,290.000,298.962,290.000,310.000Z" style="fill: rgb(17, 180, 0); fill-opacity: 1;" class="fills"/><defs><filter id="m" x="0" y="0" width="1" height="1" filterUnits="objectBoundingBox" color-interpolation-filters="sRGB"><feFlood flood-opacity="0" result="BackgroundImageFix"/><feBlend in="SourceGraphic" in2="BackgroundImageFix" result="shape"/><feColorMatrix in="SourceAlpha" values="0 0 0 0 0 0 0 0 0 0 0 0 0 0 0 0 0 0 127 0" result="hardAlpha"/><feMorphology radius="5" in="SourceAlpha" result="filter_31320986-6ae0-80f3-8006-01303bdf3fd2"/><feOffset/><feGaussianBlur stdDeviation="5"/><feComposite in2="hardAlpha" operator="arithmetic" k2="-1" k3="1"/><feColorMatrix values="0 0 0 0 0.09803921568627451 0 0 0 0 1 0 0 0 0 0 0 0 0 0.2 0"/><feBlend in2="shape" result="filter_31320986-6ae0-80f3-8006-01303bdf3fd2"/></filter><linearGradient id="l" x1=".5" y1="0" x2=".5" y2="1"><stop offset="0" stop-color="#333"/><stop offset="1" stop-color="#13490d"/></linearGradient><pattern patternUnits="userSpaceOnUse" x="290" y="290" width="149" height="149" patternTransform="matrix(1.000000, 0.000000, 0.000000, 1.000000, 0.000000, 0.000000)" id="n"><rect width="149" height="149" style="fill: url(&quot;#l&quot;);"/></pattern></defs><path d="M290.000,306.887C290.000,297.567,297.567,290.000,306.887,290.000L422.113,290.000C431.433,290.000,439.000,297.567,439.000,306.887L439.000,422.113C439.000,431.433,431.433,439.000,422.113,439.000L306.887,439.000C297.567,439.000,290.000,431.433,290.000,422.113L290.000,306.887Z" filter="url(#m)" fill="url(#n)" class="fills"/><defs><filter id="o" x="-.211" y="-.211" width="1.422" height="1.422" filterUnits="objectBoundingBox" color-interpolation-filters="sRGB"><feFlood flood-opacity="0" result="BackgroundImageFix"/><feColorMatrix in="SourceAlpha" values="0 0 0 0 0 0 0 0 0 0 0 0 0 0 0 0 0 0 127 0"/><feMorphology radius="3" operator="dilate" in="SourceAlpha" result="filter_31320986-6ae0-80f3-8006-012f81ff5833"/><feOffset/><feGaussianBlur stdDeviation="5"/><feColorMatrix values="0 0 0 0 0 0 0 0 0 0 0 0 0 0 0 0 0 0 0.6 0"/><feBlend in2="BackgroundImageFix" result="filter_31320986-6ae0-80f3-8006-012f81ff5833"/><feBlend in="SourceGraphic" in2="filter_31320986-6ae0-80f3-8006-012f81ff5833" result="shape"/></filter></defs><path d="M128.000,158.000C128.000,141.443,141.443,128.000,158.000,128.000L354.000,128.000C370.557,128.000,384.000,141.443,384.000,158.000L384.000,354.000C384.000,370.557,370.557,384.000,354.000,384.000L158.000,384.000C141.443,384.000,128.000,370.557,128.000,354.000L128.000,158.000ZM168.000,188.000L168.000,324.466C168.000,335.504,176.962,344.466,188.000,344.466L324.466,344.466C335.504,344.466,344.466,335.504,344.466,324.466L344.466,188.000C344.466,176.962,335.504,168.000,324.466,168.000L188.000,168.000C176.962,168.000,168.000,176.962,168.000,188.000Z" filter="url(#o)" style="fill: rgb(147, 255, 8); fill-opacity: 1;" class="fills"/><defs><filter id="q" x="0" y="0" width="1" height="1" filterUnits="objectBoundingBox" color-interpolation-filters="sRGB"><feFlood flood-opacity="0" result="BackgroundImageFix"/><feBlend in="SourceGraphic" in2="BackgroundImageFix" result="shape"/><feColorMatrix in="SourceAlpha" values="0 0 0 0 0 0 0 0 0 0 0 0 0 0 0 0 0 0 127 0" result="hardAlpha"/><feMorphology radius="8" in="SourceAlpha" result="filter_31320986-6ae0-80f3-8006-01303bdf3fd2"/><feOffset/><feGaussianBlur stdDeviation="15"/><feComposite in2="hardAlpha" operator="arithmetic" k2="-1" k3="1"/><feColorMatrix values="0 0 0 0 0.09803921568627451 0 0 0 0 1 0 0 0 0 0 0 0 0 0.2 0"/><feBlend in2="shape" result="filter_31320986-6ae0-80f3-8006-01303bdf3fd2"/></filter><linearGradient id="p" x1=".5" y1="0" x2=".5" y2="1"><stop offset="0" stop-color="#333"/><stop offset="1" stop-color="#1d7316"/></linearGradient><pattern patternUnits="userSpaceOnUse" x="168" y="168" width="176.466" height="176.466" patternTransform="matrix(1.000000, 0.000000, 0.000000, 1.000000, 0.000000, 0.000000)" id="r"><rect width="176.466" height="176.466" style="fill: url(&quot;#p&quot;);"/></pattern></defs><path d="M168.000,188.000C168.000,176.962,176.962,168.000,188.000,168.000L324.466,168.000C335.504,168.000,344.466,176.962,344.466,188.000L344.466,324.466C344.466,335.504,335.504,344.466,324.466,344.466L188.000,344.466C176.962,344.466,168.000,335.504,168.000,324.466L168.000,188.000Z" filter="url(#q)" fill="url(#r)" class="fills"/></g></g><g class="strokes"><g class="stroke-shape"><rect width="512" height="512" class="frame-background" transform="matrix(1.000000, 0.000000, 0.000000, 1.000000, 0.000000, 0.000000)" style="fill: none;" ry="0" rx="0"/></g></g></g></g></svg>