<svg width="64" xmlns="http://www.w3.org/2000/svg" height="64" fill="none"><g class="frame-container-wrapper"><g class="frame-container-blur"><g class="frame-container-shadows"><g class="fills"><rect rx="0" ry="0" width="64" height="64" transform="matrix(1.000000, 0.000000, 0.000000, 1.000000, 0.000000, 0.000000)" class="frame-background"/></g><g class="frame-children"><rect rx="0" ry="0" y="48" transform="matrix(1.000000, 0.000000, 0.000000, 1.000000, 0.000000, 0.000000)" width="64" height="16" style="fill: rgb(51, 51, 51); fill-opacity: 1;" class="fills"/><rect rx="0" ry="0" x="48" transform="matrix(1.000000, 0.000000, 0.000000, 1.000000, 0.000000, 0.000000)" width="16" height="48" style="fill: rgb(51, 51, 51); fill-opacity: 1;" class="fills"/><rect rx="0" ry="0" x="49" y="17" transform="matrix(1.000000, 0.000000, 0.000000, 1.000000, 0.000000, 0.000000)" width="15" height="15" style="fill: rgb(102, 102, 102); fill-opacity: 1;" class="fills"/><rect rx="0" ry="0" x="49" y="1" transform="matrix(1.000000, 0.000000, 0.000000, 1.000000, 0.000000, 0.000000)" width="15" height="15" style="fill: rgb(102, 102, 102); fill-opacity: 1;" class="fills"/><rect rx="0" ry="0" y="49" transform="matrix(1.000000, 0.000000, 0.000000, 1.000000, 0.000000, 0.000000)" width="32" height="15" style="fill: rgb(102, 102, 102); fill-opacity: 1;" class="fills"/><rect rx="0" ry="0" x="33" y="49" transform="matrix(1.000000, 0.000000, 0.000000, 1.000000, 0.000000, 0.000000)" width="31" height="15" style="fill: rgb(102, 102, 102); fill-opacity: 1;" class="fills"/><rect rx="0" ry="0" x="49" y="33" transform="matrix(1.000000, 0.000000, 0.000000, 1.000000, 0.000000, 0.000000)" width="15" height="15" style="fill: rgb(102, 102, 102); fill-opacity: 1;" class="fills"/></g></g></g></g></svg>