<svg width="64" xmlns="http://www.w3.org/2000/svg" height="64" fill="none"><g class="frame-container-wrapper"><g class="frame-container-blur"><g class="frame-container-shadows"><g class="fills"><rect rx="0" ry="0" width="64" height="64" transform="matrix(1.000000, 0.000000, 0.000000, 1.000000, 0.000000, 0.000000)" class="frame-background"/></g><g class="frame-children"><rect rx="0" ry="0" x="31" y="48" transform="matrix(1.000000, 0.000000, 0.000000, 1.000000, 0.000000, 0.000000)" width="33" height="16" style="fill: rgb(51, 51, 51); fill-opacity: 1;" class="fills"/><rect rx="0" ry="0" x="21" y="32" transform="matrix(1.000000, 0.000000, 0.000000, 1.000000, 0.000000, 0.000000)" width="33" height="17" style="fill: rgb(51, 51, 51); fill-opacity: 1;" class="fills"/><rect rx="0" ry="0" x="10" y="16" transform="matrix(1.000000, 0.000000, 0.000000, 1.000000, 0.000000, 0.000000)" width="33" height="17" style="fill: rgb(51, 51, 51); fill-opacity: 1;" class="fills"/><rect rx="0" ry="0" transform="matrix(1.000000, 0.000000, 0.000000, 1.000000, 0.000000, 0.000000)" width="33" height="17" style="fill: rgb(51, 51, 51); fill-opacity: 1;" class="fills"/><rect rx="0" ry="0" x="1" y="1" transform="matrix(1.000000, 0.000000, 0.000000, 1.000000, 0.000000, 0.000000)" width="31" height="15" style="fill: rgb(102, 102, 102); fill-opacity: 1;" class="fills"/><rect rx="0" ry="0" x="22" y="33" transform="matrix(1.000000, 0.000000, 0.000000, 1.000000, 0.000000, 0.000000)" width="31" height="15" style="fill: rgb(102, 102, 102); fill-opacity: 1;" class="fills"/><rect rx="0" ry="0" x="11" y="17" transform="matrix(1.000000, 0.000000, 0.000000, 1.000000, 0.000000, 0.000000)" width="31" height="15" style="fill: rgb(102, 102, 102); fill-opacity: 1;" class="fills"/><rect rx="0" ry="0" x="32" y="49" transform="matrix(1.000000, 0.000000, 0.000000, 1.000000, 0.000000, 0.000000)" width="31" height="15" style="fill: rgb(102, 102, 102); fill-opacity: 1;" class="fills"/></g></g></g></g></svg>