<svg width="64" xmlns="http://www.w3.org/2000/svg" height="64" fill="none"><g class="frame-container-wrapper"><g class="frame-container-blur"><g class="frame-container-shadows"><g class="fills"><rect rx="0" ry="0" width="64" height="64" transform="matrix(1.000000, 0.000000, 0.000000, 1.000000, 0.000000, 0.000000)" class="frame-background"/></g><g class="frame-children"><path d="M0.000,16.500C7.244,16.500,16.839,17.122,23.000,20.000C30.162,23.346,33.289,33.751,38.000,40.000C44.057,48.034,48.000,53.173,48.000,64.000L0.000,64.000" style="fill: rgb(102, 102, 102); fill-opacity: 0.5;" class="fills"/><path d="M32.000,64.000L0.000,64.000C0.000,32.000,0.000,32.000,0.000,32.000C4.691,32.000,9.984,31.183,14.000,33.000C19.291,35.394,20.712,45.283,24.000,50.000C27.612,55.181,32.000,57.211,32.000,64.000ZC32.000,64.000,32.000,64.000,32.000,64.000ZC32.000,64.000,32.000,64.000,32.000,64.000ZC32.000,64.000,32.000,64.000,32.000,64.000ZC32.000,64.000,32.000,64.000,32.000,64.000Z" style="fill: rgb(102, 102, 102); fill-opacity: 1;" class="fills"/></g></g></g></g></svg>