<svg width="64" xmlns="http://www.w3.org/2000/svg" height="64" fill="none"><g class="frame-container-wrapper"><g class="frame-container-blur"><g class="frame-container-shadows"><g class="fills"><rect rx="0" ry="0" width="64" height="64" transform="matrix(1.000000, 0.000000, 0.000000, 1.000000, 0.000000, 0.000000)" class="frame-background"/></g><g class="frame-children"><path d="M64.000,48.000C53.813,48.000,48.773,45.421,41.000,40.000C34.559,35.509,22.105,31.034,18.500,24.000C15.141,17.446,16.000,7.865,16.000,0.000L64.000,0.000L64.000,48.000ZM18.500,24.000M41.000,40.000" style="fill: rgb(102, 102, 102); fill-opacity: 0.5;" class="fills"/><path d="M32.000,0.000L64.000,0.000L64.000,32.000C64.000,32.000,64.000,32.000,64.000,32.000C64.000,32.000,64.000,32.000,64.000,32.000C64.000,32.000,64.000,32.000,64.000,32.000C64.000,32.000,64.000,32.000,64.000,32.000C64.000,32.000,64.000,32.000,64.000,32.000C64.000,32.000,64.000,32.000,64.000,32.000C64.000,32.000,64.000,32.000,64.000,32.000C64.000,32.000,64.000,32.000,64.000,32.000C57.183,32.000,54.693,27.639,49.500,24.000C44.918,20.789,36.890,21.616,34.500,16.500C32.581,12.393,32.000,4.829,32.000,0.000ZC32.000,0.000,32.000,0.000,32.000,0.000ZC32.000,0.000,32.000,0.000,32.000,0.000Z" style="fill: rgb(102, 102, 102); fill-opacity: 1;" class="fills"/></g></g></g></g></svg>