<svg width="64" xmlns="http://www.w3.org/2000/svg" height="64" fill="none"><g class="frame-container-wrapper"><g class="frame-container-blur"><g class="frame-container-shadows"><g class="fills"><rect rx="0" ry="0" width="64" height="64" transform="matrix(1.000000, 0.000000, 0.000000, 1.000000, 0.000000, 0.000000)" class="frame-background"/></g><g class="frame-children"><path d="M16.000,64.000C16.000,64.000,15.261,61.530,16.000,56.947C18.594,40.863,13.063,50.371,17.000,32.000C20.000,18.000,18.506,24.918,16.000,8.378C15.173,2.918,16.000,-0.000,16.000,-0.000L44.000,-0.000L44.000,64.000L16.000,64.000ZM16.000,8.378" style="fill: rgb(102, 102, 102); fill-opacity: 0.5;" class="fills"/><path d="M32.000,0.000L64.000,0.000L64.000,64.000L32.000,64.000C32.000,64.000,32.000,60.609,32.000,53.826C32.000,38.611,37.500,41.500,35.000,35.000C27.164,14.626,32.000,23.657,32.000,8.963C32.000,2.988,32.000,0.000,32.000,0.000ZM32.000,8.963" style="fill: rgb(102, 102, 102); fill-opacity: 1;" class="fills"/></g></g></g></g></svg>