<svg width="64" xmlns="http://www.w3.org/2000/svg" height="64" fill="none"><g class="frame-container-wrapper"><g class="frame-container-blur"><g class="frame-container-shadows"><g class="fills"><rect rx="0" ry="0" width="64" height="64" transform="matrix(1.000000, 0.000000, 0.000000, 1.000000, 0.000000, 0.000000)" class="frame-background"/></g><g class="frame-children"><path d="M-0.000,64.000C-0.000,32.000,0.000,16.000,0.000,16.000C4.967,16.000,5.000,15.000,7.000,14.000C9.608,12.696,15.000,12.000,16.000,10.000C17.000,8.000,16.000,5.554,16.000,0.000L64.000,-0.000C64.000,28.000,64.000,48.000,64.000,48.000C59.033,48.000,58.917,50.350,57.000,51.500C54.500,53.000,51.240,54.639,50.000,56.500C49.000,58.000,48.000,58.942,48.000,64.000" style="fill: rgb(102, 102, 102); fill-opacity: 0.5;" class="fills"/><path d="M0.000,64.000C0.000,32.000,0.000,32.000,0.000,32.000C4.967,32.000,7.303,28.023,11.500,26.000C17.532,23.091,27.295,22.855,30.500,17.000C32.993,12.446,32.000,5.554,32.000,0.000L64.000,-0.000C64.000,28.000,64.000,32.000,64.000,32.000C59.033,32.000,54.697,38.977,50.500,41.000C44.049,44.111,40.660,45.577,37.500,52.000C35.407,56.254,32.000,58.942,32.000,64.000" style="fill: rgb(102, 102, 102); fill-opacity: 1;" class="fills"/></g></g></g></g></svg>