<svg width="64" xmlns="http://www.w3.org/2000/svg" height="64" fill="none"><g class="frame-container-wrapper"><g class="frame-container-blur"><g class="frame-container-shadows"><g class="fills"><rect rx="0" ry="0" width="64" height="64" transform="matrix(1.000000, 0.000000, 0.000000, 1.000000, 0.000000, 0.000000)" class="frame-background"/></g><g class="frame-children"><path d="M16.000,0.000L38.000,0.000L38.000,38.000L0.000,38.000L0.000,16.000C0.000,16.000,0.000,16.000,0.000,16.000C0.000,16.000,0.000,16.000,0.000,16.000C0.000,16.000,0.000,16.000,0.000,16.000C0.000,16.000,0.000,16.000,0.000,16.000C2.485,16.000,4.901,14.013,7.000,13.000C9.971,11.567,14.396,11.868,16.000,9.000C17.290,6.693,16.000,2.829,16.000,0.000ZC16.000,0.000,16.000,0.000,16.000,0.000ZM13.974,7.793L7.000,13.000" style="fill: rgb(102, 102, 102); fill-opacity: 0.5;" class="fills"/><path d="M48.000,64.000L26.000,64.000L26.000,26.000L64.000,26.000L64.000,48.000C61.095,48.000,58.349,51.644,56.000,53.000C52.882,54.799,52.335,55.616,51.000,59.000C50.283,60.816,48.000,61.930,48.000,64.000ZC48.000,64.000,48.000,64.000,48.000,64.000ZM64.000,48.000C64.000,48.000,64.000,48.000,64.000,48.000ZM51.000,59.000L56.020,50.132" style="fill: rgb(102, 102, 102); fill-opacity: 0.5;" class="fills"/><path d="M0.000,-0.000L0.000,-0.000ZL0.000,-0.000ZL-0.000,32.000C0.000,32.000,0.000,32.000,0.000,32.000C4.415,32.000,8.172,27.620,12.000,26.000C18.908,23.076,27.577,22.629,31.000,16.000C33.267,11.610,32.000,5.278,32.000,0.000C32.000,0.000,32.000,0.000,32.000,-0.000L64.000,0.000L64.000,32.000L64.000,64.000L32.000,64.000L0.000,64.000M32.000,0.000C32.000,0.000,32.000,0.000,32.000,0.000ZM64.000,32.000C64.000,32.000,64.000,32.000,64.000,32.000ZC64.000,32.000,64.000,32.000,64.000,32.000ZC64.000,32.000,64.000,32.000,64.000,32.000ZC64.000,32.000,64.000,32.000,64.000,32.000ZC64.000,32.000,64.000,32.000,64.000,32.000ZC64.000,32.000,64.000,32.000,64.000,32.000ZC64.000,32.000,64.000,32.000,64.000,32.000ZC64.000,32.000,64.000,32.000,64.000,32.000ZC58.224,32.000,54.982,38.282,51.000,41.000C46.040,44.385,40.786,44.841,38.000,51.000C36.183,55.016,32.000,59.309,32.000,64.000C32.000,64.000,32.000,64.000,32.000,64.000C32.000,64.000,32.000,64.000,32.000,64.000L64.000,64.000L64.000,32.000Z" style="fill: rgb(102, 102, 102); fill-opacity: 1;" class="fills"/></g></g></g></g></svg>