<svg width="64" xmlns="http://www.w3.org/2000/svg" height="64" fill="none"><g class="frame-container-wrapper"><g class="frame-container-blur"><g class="frame-container-shadows"><g class="fills"><rect rx="0" ry="0" width="64" height="64" transform="matrix(1.000000, 0.000000, 0.000000, 1.000000, 0.000000, 0.000000)" class="frame-background"/></g><g class="frame-children"><path d="M64.000,64.000C33.000,64.000,16.000,64.000,16.000,64.000C16.000,57.989,15.887,59.807,13.000,55.000C10.452,50.759,9.500,50.000,8.000,50.000C5.938,50.000,6.347,48.000,0.000,48.000L0.000,0.000C28.000,0.000,48.000,0.000,48.000,0.000C48.000,5.243,45.761,4.631,48.000,9.000C50.817,14.498,49.168,10.916,54.500,14.000C59.205,16.721,58.179,16.000,64.000,16.000M8.000,50.000" style="fill: rgb(102, 102, 102); fill-opacity: 0.5;" class="fills"/><path d="M64.000,64.000C32.000,64.000,32.000,64.000,32.000,64.000C32.000,57.989,28.387,54.307,25.500,49.500C22.952,45.259,20.159,36.668,16.000,34.000C11.022,30.808,6.347,32.000,0.000,32.000L0.000,0.000C28.000,0.000,32.000,0.000,32.000,0.000C32.000,5.243,37.761,7.631,40.000,12.000C42.817,17.498,42.668,20.416,48.000,23.500C52.705,26.221,58.179,32.000,64.000,32.000M16.000,34.000" style="fill: rgb(102, 102, 102); fill-opacity: 1;" class="fills"/></g></g></g></g></svg>