<svg width="64" xmlns="http://www.w3.org/2000/svg" height="64" fill="none"><g class="frame-container-wrapper"><g class="frame-container-blur"><g class="frame-container-shadows"><g class="fills"><rect rx="0" ry="0" width="64" height="64" transform="matrix(1.000000, 0.000000, 0.000000, 1.000000, 0.000000, 0.000000)" class="frame-background"/></g><g class="frame-children"><path d="M64.000,16.000L64.000,38.000L26.000,38.000L26.000,0.000L48.000,0.000C48.000,0.000,48.000,0.000,48.000,0.000C48.000,0.000,48.000,0.000,48.000,0.000C48.000,2.829,50.710,4.693,52.000,7.000C53.305,9.333,54.248,11.073,56.500,12.500C58.973,14.067,60.858,16.000,64.000,16.000ZC64.000,16.000,64.000,16.000,64.000,16.000Z" style="fill: rgb(102, 102, 102); fill-opacity: 0.5;" class="fills"/><path d="M0.000,48.000L0.000,26.000L38.000,26.000L38.000,64.000L16.000,64.000C16.000,64.000,16.000,64.000,16.000,64.000C16.000,64.000,16.000,64.000,16.000,64.000C16.000,60.606,13.806,59.591,12.000,57.000C10.356,54.641,10.146,49.197,7.500,48.000C5.492,47.092,2.346,48.000,0.000,48.000ZC0.000,48.000,0.000,48.000,0.000,48.000Z" style="fill: rgb(102, 102, 102); fill-opacity: 0.5;" class="fills"/><path d="M0.000,64.000L32.000,64.000C32.000,64.000,32.000,64.000,32.000,64.000C32.000,57.312,29.514,55.137,26.000,50.000C22.699,45.175,20.878,35.933,15.500,33.500C11.484,31.683,4.691,32.000,0.000,32.000C0.000,32.000,0.000,32.000,0.000,32.000L0.000,0.000L64.000,0.000L64.000,32.000L64.000,32.000L64.000,64.000M32.000,0.000C32.000,0.000,32.000,0.000,32.000,0.000ZC32.000,4.967,38.477,8.303,40.500,12.500C43.166,18.030,44.307,21.295,49.500,24.500C54.378,27.511,57.851,32.000,64.000,32.000C64.000,32.000,64.000,32.000,64.000,32.000C64.000,32.000,64.000,32.000,64.000,32.000C64.000,32.000,64.000,32.000,64.000,32.000C64.000,32.000,64.000,32.000,64.000,32.000C64.000,32.000,64.000,32.000,64.000,32.000C64.000,32.000,64.000,32.000,64.000,32.000C64.000,32.000,64.000,32.000,64.000,32.000C64.000,32.000,64.000,32.000,64.000,32.000C64.000,32.000,64.000,32.000,64.000,32.000C64.000,32.000,64.000,32.000,64.000,32.000C64.000,32.000,64.000,32.000,64.000,32.000C64.000,32.000,64.000,32.000,64.000,32.000L64.000,0.000L32.000,0.000Z" style="fill: rgb(102, 102, 102); fill-opacity: 1;" class="fills"/></g></g></g></g></svg>