<svg width="64" xmlns="http://www.w3.org/2000/svg" height="66.545" viewBox="0 -0.199 64 66.545" fill="none"><g class="frame-container-wrapper"><g class="frame-container-blur"><g class="frame-container-shadows"><g class="fills"><rect rx="0" ry="0" width="64" height="64" transform="matrix(1.000000, 0.000000, 0.000000, 1.000000, 0.000000, 0.000000)" class="frame-background"/></g><g class="frame-children"><path d="M18.000,64.000L18.000,0.000L48.000,0.000C48.000,0.000,47.892,5.285,50.500,10.500C53.000,15.500,52.500,21.500,52.000,34.500C51.846,38.508,50.477,41.806,48.000,48.000C47.000,50.500,48.000,64.000,48.000,64.000L18.000,64.000ZM52.000,34.500M48.000,48.000" style="fill: rgb(102, 102, 102); fill-opacity: 0.5;" class="fills"/><path d="M0.000,0.000L32.000,0.000C32.000,0.000,32.000,-2.600,32.000,11.000C32.000,18.910,39.524,24.419,37.000,33.000C34.500,41.500,32.000,51.021,32.000,58.000C32.000,72.178,32.000,64.000,32.000,64.000L0.000,64.000L0.000,0.000ZM37.000,33.000" style="fill: rgb(102, 102, 102); fill-opacity: 1;" class="fills"/></g></g></g></g></svg>