<svg width="64" xmlns="http://www.w3.org/2000/svg" height="64" fill="none"><g class="frame-container-wrapper"><g class="frame-container-blur"><g class="frame-container-shadows"><g class="fills"><rect rx="0" ry="0" width="64" height="64" transform="matrix(1.000000, 0.000000, 0.000000, 1.000000, 0.000000, 0.000000)" class="frame-background"/></g><g class="frame-children"><path d="M64.000,16.000L64.000,38.000L26.000,38.000L26.000,0.000L48.000,0.000C48.000,0.000,48.000,0.000,48.000,0.000C48.000,0.000,48.000,0.000,48.000,0.000C48.000,2.760,47.768,7.733,49.000,10.000C50.186,12.182,54.478,13.080,56.500,14.500C59.100,16.326,60.585,16.000,64.000,16.000ZC64.000,16.000,64.000,16.000,64.000,16.000Z" style="fill: rgb(102, 102, 102); fill-opacity: 0.5;" class="fills"/><path d="M64.000,32.000L64.000,64.000L-0.000,64.000L-0.000,0.000L32.000,0.000C32.000,0.000,32.000,0.000,32.000,0.000C32.000,0.000,32.000,0.000,32.000,0.000C32.000,4.415,33.380,13.172,35.000,17.000C37.620,23.190,42.821,20.524,48.500,24.000C53.356,26.972,57.894,32.000,64.000,32.000ZC64.000,32.000,64.000,32.000,64.000,32.000ZC64.000,32.000,64.000,32.000,64.000,32.000ZC64.000,32.000,64.000,32.000,64.000,32.000ZC64.000,32.000,64.000,32.000,64.000,32.000ZC64.000,32.000,64.000,32.000,64.000,32.000Z" style="fill: rgb(102, 102, 102); fill-opacity: 1;" class="fills"/></g></g></g></g></svg>