<svg width="64" xmlns="http://www.w3.org/2000/svg" height="64" fill="none"><g class="frame-container-wrapper"><g class="frame-container-blur"><g class="frame-container-shadows"><g class="fills"><rect rx="0" ry="0" width="64" height="64" transform="matrix(1.000000, 0.000000, 0.000000, 1.000000, 0.000000, 0.000000)" class="frame-background"/></g><g class="frame-children"><path d="M64.000,64.000L0.000,64.000L0.000,0.000C33.000,-0.000,32.000,-0.000,32.000,0.000C32.000,4.415,33.380,13.172,35.000,17.000C37.620,23.190,42.821,20.524,48.500,24.000C53.356,26.972,57.894,32.000,64.000,32.000C64.000,32.000,64.000,32.000,64.000,32.000C64.000,32.000,64.000,32.000,64.000,32.000C64.000,32.000,64.000,32.000,64.000,32.000C64.000,32.000,64.000,32.000,64.000,32.000" style="fill: rgb(102, 102, 102); fill-opacity: 1;" class="fills"/><path d="M64.000,64.000L0.000,64.000L0.000,0.000C33.000,-0.000,48.000,-0.000,48.000,0.000C48.000,4.415,46.061,7.061,49.000,10.000C50.500,11.500,49.321,10.524,55.000,14.000C59.856,16.972,57.894,16.000,64.000,16.000C64.000,16.000,64.000,16.000,64.000,16.000C64.000,16.000,64.000,16.000,64.000,16.000C64.000,16.000,64.000,16.000,64.000,16.000C64.000,16.000,64.000,16.000,64.000,16.000" style="fill: rgb(102, 102, 102); fill-opacity: 0.5;" class="fills"/></g></g></g></g></svg>