<svg width="64" xmlns="http://www.w3.org/2000/svg" height="64" fill="none"><g class="frame-container-wrapper"><g class="frame-container-blur"><g class="frame-container-shadows"><g class="fills"><rect rx="0" ry="0" width="64" height="64" transform="matrix(1.000000, 0.000000, 0.000000, 1.000000, 0.000000, 0.000000)" class="frame-background"/></g><g class="frame-children"><path d="M0.000,20.500L64.000,20.500L64.000,48.000C64.000,48.000,58.022,47.755,51.000,48.500C36.022,50.089,44.309,51.651,31.000,51.500C14.976,51.318,14.211,48.000,7.000,48.000C1.500,48.000,0.000,48.000,0.000,48.000L0.000,20.500Z" style="fill: rgb(102, 102, 102); fill-opacity: 0.5;" class="fills"/><path d="M0.000,0.000L64.000,0.000L64.000,32.000C59.500,32.000,53.483,35.302,46.500,35.000C41.175,34.770,28.881,33.579,23.500,34.000C13.908,34.750,19.000,32.000,9.447,32.000C3.149,32.000,0.000,32.000,0.000,32.000L0.000,0.000Z" style="fill: rgb(102, 102, 102); fill-opacity: 1;" class="fills"/></g></g></g></g></svg>