<svg width="64" xmlns="http://www.w3.org/2000/svg" height="64" fill="none"><g class="frame-container-wrapper"><g class="frame-container-blur"><g class="frame-container-shadows"><g class="fills"><rect rx="0" ry="0" width="64" height="64" transform="matrix(1.000000, 0.000000, 0.000000, 1.000000, 0.000000, 0.000000)" class="frame-background"/></g><g class="frame-children"><path d="M-0.000,48.000L-0.000,26.000L38.000,26.000L38.000,64.000L16.000,64.000C16.000,64.000,16.000,64.000,16.000,64.000C16.000,64.000,16.000,64.000,16.000,64.000C16.000,60.921,14.509,60.441,13.000,58.000C11.668,55.846,12.165,50.316,10.000,49.000C7.581,47.529,3.036,48.000,-0.000,48.000ZC0.000,48.000,0.000,48.000,-0.000,48.000ZM8.294,50.318L13.000,58.000" style="fill: rgb(102, 102, 102); fill-opacity: 0.5;" class="fills"/><path d="M0.000,64.000L32.000,64.000C32.000,64.000,32.000,64.000,32.000,64.000C32.000,64.000,32.000,64.000,32.000,64.000C32.000,64.000,32.000,64.000,32.000,64.000C32.000,64.000,32.000,64.000,32.000,64.000C32.000,58.431,27.506,56.563,25.000,52.000C22.415,47.292,23.506,38.890,19.000,36.000C14.022,32.808,6.347,32.000,0.000,32.000C0.000,32.000,0.000,32.000,-0.000,32.000C-0.000,32.000,0.000,32.000,0.000,32.000L0.000,0.000L64.000,0.000L64.000,64.000" style="fill: rgb(102, 102, 102); fill-opacity: 1;" class="fills"/></g></g></g></g></svg>