<svg width="64" xmlns="http://www.w3.org/2000/svg" height="64" fill="none"><g class="frame-container-wrapper"><g class="frame-container-blur"><g class="frame-container-shadows"><g class="fills"><rect rx="0" ry="0" width="64" height="64" transform="matrix(1.000000, 0.000000, 0.000000, 1.000000, 0.000000, 0.000000)" class="frame-background"/></g><g class="frame-children"><path d="M48.000,64.000L26.000,64.000L26.000,26.000L64.000,26.000L64.000,48.000C61.309,48.000,58.726,49.825,56.500,51.000C53.602,52.530,54.004,55.087,52.500,58.000C51.367,60.195,48.000,61.362,48.000,64.000ZC48.000,64.000,48.000,64.000,48.000,64.000ZM64.000,48.000C64.000,48.000,64.000,48.000,64.000,48.000ZM56.547,49.841M52.500,58.000" style="fill: rgb(102, 102, 102); fill-opacity: 0.5;" class="fills"/><path d="M32.000,64.000L0.000,64.000L0.000,0.000L64.000,0.000L64.000,32.000C64.000,32.000,64.000,32.000,64.000,32.000C64.000,32.000,64.000,32.000,64.000,32.000C57.718,32.000,46.946,31.867,42.000,35.000C36.735,38.335,42.590,46.275,40.000,52.000C38.183,56.016,32.000,59.309,32.000,64.000ZC32.000,64.000,32.000,64.000,32.000,64.000ZM34.829,50.836M46.910,36.947" style="fill: rgb(102, 102, 102); fill-opacity: 1;" class="fills"/></g></g></g></g></svg>