<svg width="64" xmlns="http://www.w3.org/2000/svg" height="64" fill="none"><g class="frame-container-wrapper"><g class="frame-container-blur"><g class="frame-container-shadows"><g class="fills"><rect rx="0" ry="0" width="64" height="64" transform="matrix(1.000000, 0.000000, 0.000000, 1.000000, 0.000000, 0.000000)" class="frame-background"/></g><g class="frame-children"><path d="M32.000,0.000L0.000,0.000L0.000,42.000C-0.000,42.000,0.000,42.000,0.000,42.000C0.000,42.000,0.000,42.000,0.000,42.000C17.661,42.000,32.000,23.180,32.000,0.000ZC32.000,0.000,32.000,0.000,32.000,0.000Z" style="fill: rgb(51, 51, 51); fill-opacity: 1;" class="fills"/><path d="M32.000,0.000L0.000,0.000L0.000,32.000C-0.000,32.000,0.000,32.000,0.000,32.000C0.000,32.000,0.000,32.000,0.000,32.000C17.661,32.000,32.000,17.661,32.000,0.000ZC32.000,0.000,32.000,0.000,32.000,0.000Z" style="fill: rgb(102, 102, 102); fill-opacity: 1;" class="fills"/></g></g></g></g></svg>