<svg width="64" xmlns="http://www.w3.org/2000/svg" height="64" fill="none"><g class="frame-container-wrapper"><g class="frame-container-blur"><g class="frame-container-shadows"><g class="fills"><rect rx="0" ry="0" width="64" height="64" transform="matrix(1.000000, 0.000000, 0.000000, 1.000000, 0.000000, 0.000000)" class="frame-background"/></g><g class="frame-children"><path d="M0.000,32.000L0.000,32.000ZL32.000,32.000L32.000,64.000L31.829,64.000C27.429,51.230,14.834,42.000,0.000,42.000C0.000,42.000,0.000,42.000,-0.000,42.000C-0.000,42.000,-0.000,42.000,-0.000,42.000L0.000,32.000Z" style="fill: rgb(51, 51, 51); fill-opacity: 1;" class="fills"/><path d="M0.000,64.000L32.000,64.000C32.000,64.000,32.000,64.000,32.000,64.000C32.000,46.339,17.661,32.000,0.000,32.000C0.000,32.000,0.000,32.000,0.000,32.000L0.000,0.000L64.000,0.000L64.000,32.000L64.000,32.000L64.000,64.000M32.000,0.000C32.000,0.000,32.000,0.000,32.000,0.000ZC32.000,17.661,46.339,32.000,64.000,32.000C64.000,32.000,64.000,32.000,64.000,32.000C64.000,32.000,64.000,32.000,64.000,32.000C64.000,32.000,64.000,32.000,64.000,32.000L64.000,0.000L32.000,0.000Z" style="fill: rgb(102, 102, 102); fill-opacity: 1;" class="fills"/></g></g></g></g></svg>